<svg width="128" height="128" viewBox="0 0 128 128" fill="none" xmlns="http://www.w3.org/2000/svg">
<path d="M47.9998 117.333H79.9998C106.667 117.333 117.333 106.667 117.333 80V48C117.333 21.3333 106.667 10.6666 79.9998 10.6666H47.9998C21.3332 10.6666 10.6665 21.3333 10.6665 48V80C10.6665 106.667 21.3332 117.333 47.9998 117.333Z" stroke="white" stroke-width="8" stroke-linecap="round" stroke-linejoin="round"/>
<path d="M64.0002 82.6667C74.3095 82.6667 82.6668 74.3094 82.6668 64C82.6668 53.6907 74.3095 45.3334 64.0002 45.3334C53.6908 45.3334 45.3335 53.6907 45.3335 64C45.3335 74.3094 53.6908 82.6667 64.0002 82.6667Z" stroke="white" stroke-width="8" stroke-linecap="round" stroke-linejoin="round"/>
<path d="M94.0591 37.3334H94.1209" stroke="white" stroke-width="10.6667" stroke-linecap="round" stroke-linejoin="round"/>
</svg>
