<svg width="128" height="128" viewBox="0 0 128 128" fill="none" xmlns="http://www.w3.org/2000/svg">
<path d="M32 94.3158H47.1579V53.0528H32M39.7654 33.4221C35.0708 33.4221 32 36.502 32 40.5504C32 44.512 34.9819 47.6835 39.5833 47.6835H39.6749C44.4598 47.6835 47.4361 44.512 47.4361 40.5504C47.3459 36.502 44.4598 33.4221 39.7654 33.4221ZM96 70.9177V94.3158H82.5263V72.421C82.5263 66.8751 80.2986 63.1715 75.3334 63.1715C71.5431 63.1715 69.2876 65.7222 68.2944 68.1891C67.9333 69.0716 67.3684 70.3439 67.3684 71.5791V94.3158H53.8947C53.8947 94.3158 53.8947 58.9473 53.8947 53.0528H67.3684V59.3684L67.8403 59.2966V59.1629C69.6625 56.3555 72.9181 52.3441 80.2043 52.3441C89.2333 52.3441 96 58.2428 96 70.9177Z" fill="white"/>
</svg>
