<svg width="25" height="25" viewBox="0 0 25 25" fill="none" xmlns="http://www.w3.org/2000/svg">
<g clip-path="url(#clip0_849_88)">
<path d="M21.1245 10.7297C21.1245 17.7297 12.1245 23.7297 12.1245 23.7297C12.1245 23.7297 3.12451 17.7297 3.12451 10.7297C3.12451 8.34279 4.07272 6.0536 5.76055 4.36578C7.44838 2.67795 9.73756 1.72974 12.1245 1.72974C14.5115 1.72974 16.8006 2.67795 18.4885 4.36578C20.1763 6.0536 21.1245 8.34279 21.1245 10.7297Z" stroke="#AAAAAA" stroke-width="1.2" stroke-linecap="round" stroke-linejoin="round"/>
<path d="M12.1245 13.7297C13.7814 13.7297 15.1245 12.3866 15.1245 10.7297C15.1245 9.07288 13.7814 7.72974 12.1245 7.72974C10.4677 7.72974 9.12451 9.07288 9.12451 10.7297C9.12451 12.3866 10.4677 13.7297 12.1245 13.7297Z" stroke="#AAAAAA" stroke-width="1.2" stroke-linecap="round" stroke-linejoin="round"/>
</g>
<defs>
<clipPath id="clip0_849_88">
<rect width="24" height="24" fill="white" transform="translate(0.124512 0.729736)"/>
</clipPath>
</defs>
</svg>
