<svg width="128" height="128" viewBox="0 0 128 128" fill="none" xmlns="http://www.w3.org/2000/svg">
<path d="M47.3918 38.2391C48.3675 38.2653 49.4494 38.3181 50.4786 40.6028C51.1611 42.1237 52.3109 44.9237 53.2475 47.2046C53.9766 48.9795 54.576 50.44 54.7259 50.7389C55.0688 51.4216 55.28 52.2093 54.8315 53.1283C54.7787 53.2366 54.7291 53.3402 54.6806 53.4399C54.3211 54.1866 54.0651 54.7183 53.4598 55.4127C53.2112 55.6986 52.952 56.0117 52.6938 56.3237C52.2397 56.8725 51.7886 57.4175 51.4019 57.8026C50.716 58.4847 50.0034 59.2207 50.7948 60.5861C51.5867 61.9514 54.3568 66.4421 58.4464 70.0655C62.8427 73.9797 66.6656 75.6293 68.5984 76.4629C68.9734 76.625 69.2774 76.7562 69.5003 76.8671C70.8726 77.5498 71.6902 77.4447 72.4816 76.5258C73.2736 75.6063 75.9115 72.5338 76.8352 71.1685C77.7323 69.8031 78.6555 70.0133 79.9222 70.4858C81.1883 70.9583 87.9424 74.2671 89.3142 74.9498C89.5851 75.0847 89.839 75.2063 90.0742 75.3194C91.0283 75.777 91.6774 76.0879 91.9526 76.5519C92.2955 77.1295 92.2955 79.8608 91.1611 83.0645C90.0006 86.2677 84.407 89.3402 81.8742 89.5765C81.6342 89.5994 81.3958 89.6282 81.1499 89.6576C78.8288 89.9386 75.8827 90.2949 65.3846 86.1626C52.4493 81.0762 43.9105 68.4554 42.1842 65.9039C42.0479 65.7023 41.954 65.5637 41.9039 65.4965L41.8747 65.4575C41.0892 64.4063 36.2842 57.977 36.2842 51.3431C36.2842 44.9963 39.4107 41.692 40.8368 40.1849C40.9272 40.0893 41.0107 40.0011 41.0862 39.9196C42.3524 38.5543 43.8301 38.213 44.7534 38.213C45.6771 38.213 46.6003 38.213 47.3918 38.2391Z" fill="white"/>
<path fill-rule="evenodd" clip-rule="evenodd" d="M11.6489 113.767C11.2126 115.351 12.6552 116.813 14.2448 116.398L38.8173 109.98C46.5739 114.181 55.3067 116.413 64.1979 116.413H64.2245C93.4832 116.413 117.333 92.7013 117.333 63.5536C117.333 49.4258 111.819 36.1383 101.794 26.1595C91.768 16.1811 78.4448 10.6666 64.224 10.6666C34.9657 10.6666 11.1152 34.3789 11.1152 63.5274C11.1119 72.8 13.5595 81.9104 18.2122 89.944L11.6489 113.767ZM25.9249 92.0688C26.4946 90.001 26.21 87.7909 25.135 85.9344C21.1875 79.1189 19.1124 71.3893 19.1152 63.5274C19.1152 38.8351 39.346 18.6666 64.224 18.6666C76.3301 18.6666 87.6245 23.3439 96.1498 31.8296C104.666 40.3059 109.333 51.5525 109.333 63.5536C109.333 88.2448 89.1029 108.413 64.2245 108.413H64.1979C56.6432 108.413 49.2193 106.516 42.6275 102.946C40.8434 101.979 38.7587 101.727 36.7955 102.24L22.0627 106.088L25.9249 92.0688Z" fill="white"/>
</svg>
